<mxfile host="65bd71144e">
    <diagram id="6k3RKRUPEE6e5cJzoXYt" name="Page-1">
        <mxGraphModel dx="2773" dy="3003" grid="1" gridSize="10" guides="1" tooltips="1" connect="1" arrows="1" fold="1" page="1" pageScale="1" pageWidth="850" pageHeight="1100" math="0" shadow="0">
            <root>
                <mxCell id="0"/>
                <mxCell id="1" parent="0"/>
                <mxCell id="10" style="edgeStyle=none;html=1;" edge="1" parent="1" source="4" target="6">
                    <mxGeometry relative="1" as="geometry"/>
                </mxCell>
                <mxCell id="4" value="" style="outlineConnect=0;dashed=0;verticalLabelPosition=bottom;verticalAlign=top;align=center;html=1;shape=mxgraph.aws3.ec2;fillColor=#F58534;gradientColor=none;" vertex="1" parent="1">
                    <mxGeometry x="750" y="840" width="186.5" height="230" as="geometry"/>
                </mxCell>
                <mxCell id="5" value="" style="aspect=fixed;html=1;points=[];align=center;image;fontSize=12;image=img/lib/azure2/compute/Automanaged_VM.svg;" vertex="1" parent="1">
                    <mxGeometry x="112.33" y="840" width="242.83" height="221.4" as="geometry"/>
                </mxCell>
                <mxCell id="8" style="edgeStyle=none;html=1;entryX=0.486;entryY=0.001;entryDx=0;entryDy=0;entryPerimeter=0;" edge="1" parent="1" source="6" target="5">
                    <mxGeometry relative="1" as="geometry"/>
                </mxCell>
                <mxCell id="19" style="edgeStyle=none;html=1;entryX=0.5;entryY=0;entryDx=0;entryDy=0;startArrow=none;" edge="1" parent="1" source="89" target="18">
                    <mxGeometry relative="1" as="geometry"/>
                </mxCell>
                <mxCell id="6" value="" style="sketch=0;aspect=fixed;html=1;points=[];align=center;image;fontSize=12;image=img/lib/mscae/OpenShift.svg;" vertex="1" parent="1">
                    <mxGeometry x="1020" y="1390" width="710" height="653.21" as="geometry"/>
                </mxCell>
                <mxCell id="18" value="Cloud&#10;TPU" style="sketch=0;html=1;verticalAlign=top;labelPosition=center;verticalLabelPosition=bottom;align=center;spacingTop=-6;fontSize=11;fontStyle=1;fontColor=#999999;shape=image;aspect=fixed;imageAspect=0;image=data:image/svg+xml,PHN2ZyB4bWxucz0iaHR0cDovL3d3dy53My5vcmcvMjAwMC9zdmciIHhtbG5zOnY9Imh0dHBzOi8vdmVjdGEuaW8vbmFubyIgd2lkdGg9IjE4IiBoZWlnaHQ9IjE4IiB2aWV3Qm94PSIwIDAgMTggMTgiPiYjeGE7CTxzdHlsZSB0eXBlPSJ0ZXh0L2NzcyI+JiN4YTsJLnN0MHtmaWxsOiM0Mjg1ZjQ7fSYjeGE7CS5zdDF7ZmlsbDojNjY5ZGY2O30mI3hhOwk8L3N0eWxlPiYjeGE7CTxnIGNsYXNzPSJzdDAiIGZpbGw9IiM0Mjg1ZjQiPiYjeGE7CQk8cGF0aCBkPSJNMy40OCA2LjYyYS4zNy4zNyAwIDAgMS0uMzU4LS41MzMuMzcuMzcgMCAwIDEgLjMwOC0uMjA3bDIuMy0uMzJhLjM3LjM3IDAgMCAxIC40Mi4zMi4zOC4zOCAwIDAgMS0uMzIuNDNsLTIuMy4zMXoiLz4mI3hhOwkJPHBhdGggZD0iTTYuMjk5IDYuMjkybC4yMzMtLjcxMyA0LjE0NSAxLjM1Mi0uMjMzLjcxM3oiLz4mI3hhOwkJPHBhdGggZD0iTTYuMTggNi4xNmgtLjExYS4zNy4zNyAwIDAgMS0uMjQtLjQ2bC44My0yLjg0YS4zNy4zNyAwIDAgMSAuNDYtLjI0LjM2LjM2IDAgMCAxIC4yNi40NWwtLjg0IDIuODFhLjM4LjM4IDAgMCAxLS4zNi4yOHptNS4xMyAxLjRBLjM2LjM2IDAgMCAxIDExIDdsMS42Ny00LjIzYS4zOC4zOCAwIDAgMSAuNDctLjE4LjM4LjM4IDAgMCAxIC4yMy40NWwtMS42OCA0LjI0YS4zOS4zOSAwIDAgMS0uMzguMjh6Ii8+JiN4YTsJCTxwYXRoIGQ9Ik0yLjY2OSAxMy42MDRMNi42IDEwLjQ2NWwuNDY4LjU4Ni0zLjkzMSAzLjEzOXpNMTUuMDUgOC42MWwtLjMuNjgtMy42My0xLjU4LjI5LS42OXptLS4zMSA1LjQ4bC0uNTIuNTQtMy4yMy0zLjA0LjUyLS41NXpNNS43ODggNi4xMTNsLjczNS0uMTQ5LjgwOCAzLjk3OS0uNzM1LjE0OXoiLz4mI3hhOwkJPHBhdGggZD0iTTExLjU2IDcuNTZsLTQuMSAzLjYtLjUtLjU2IDQuMS0zLjZ6Ii8+JiN4YTsJCTxwYXRoIGQ9Ik0xMS43NCA3LjNsLS4yNSAzLjk3LS43NC0uMDUuMjQtMy45N3oiLz4mI3hhOwkJPGNpcmNsZSBjeD0iNy4wMSIgY3k9IjEwLjgyIiByPSIxLjM2Ii8+JiN4YTsJCTxjaXJjbGUgY3g9IjExLjM3IiBjeT0iNy4zNiIgcj0iMS42MSIvPiYjeGE7CQk8Y2lyY2xlIGN4PSIxMS4zNiIgY3k9IjExLjU0IiByPSIuODQiLz4mI3hhOwkJPGNpcmNsZSBjeD0iNi4wNCIgY3k9IjUuNjciIHI9Ii45OSIvPiYjeGE7CTwvZz4mI3hhOwk8ZyBjbGFzcz0ic3QxIiBmaWxsPSIjNjY5ZGY2Ij4mI3hhOwkJPHBhdGggZD0iTTggNGgyVjBIOHptNCAwaDJWMGgtMnpNNCA0aDJWMEg0em00IDE0aDJ2LTRIOHoiLz4mI3hhOwkJPHBhdGggZD0iTTEyIDE4aDJ2LTRoLTJ6bS04IDBoMnYtNEg0em0tNC04aDRWOEgwem0wLTRoNFY0SDB6Ii8+JiN4YTsJCTxwYXRoIGQ9Ik0wIDE0aDR2LTJIMHptMTQtNGg0VjhoLTR6bTAtNGg0VjRoLTR6bTAgOGg0di0yaC00eiIvPiYjeGE7CQk8cGF0aCBkPSJNMTUgMkgzYTEgMSAwIDAgMC0xIDF2MTJhMSAxIDAgMCAwIDEgMWgxMmExIDEgMCAwIDAgMS0xVjNhMSAxIDAgMCAwLTEtMXptLTEgMTEuNDdhLjUzLjUzIDAgMCAxLS41My41M0g0LjUzYS41My41MyAwIDAgMS0uNTMtLjUzVjQuNTNBLjUzLjUzIDAgMCAxIDQuNTMgNGg4Ljk0YS41My41MyAwIDAgMSAuNTMuNTN6Ii8+JiN4YTsJPC9nPiYjeGE7PC9zdmc+;" vertex="1" parent="1">
                    <mxGeometry x="1470" y="812.8" width="210" height="210" as="geometry"/>
                </mxCell>
                <mxCell id="32" style="edgeStyle=none;html=1;" edge="1" parent="1" source="23" target="4">
                    <mxGeometry relative="1" as="geometry"/>
                </mxCell>
                <mxCell id="23" value="" style="outlineConnect=0;dashed=0;verticalLabelPosition=bottom;verticalAlign=top;align=center;html=1;shape=mxgraph.aws3.iam;fillColor=#759C3E;gradientColor=none;" vertex="1" parent="1">
                    <mxGeometry x="615.31" y="380" width="300" height="131" as="geometry"/>
                </mxCell>
                <mxCell id="60" style="edgeStyle=none;html=1;" edge="1" parent="1" target="23">
                    <mxGeometry relative="1" as="geometry">
                        <mxPoint x="852.4180967238685" y="310" as="sourcePoint"/>
                    </mxGeometry>
                </mxCell>
                <mxCell id="83" style="edgeStyle=none;html=1;" edge="1" parent="1" target="43">
                    <mxGeometry relative="1" as="geometry">
                        <mxPoint x="1004.9999999999995" y="180.30625899280585" as="sourcePoint"/>
                    </mxGeometry>
                </mxCell>
                <mxCell id="52" style="edgeStyle=none;html=1;entryX=0.5;entryY=0;entryDx=0;entryDy=0;" edge="1" parent="1" source="43" target="18">
                    <mxGeometry relative="1" as="geometry"/>
                </mxCell>
                <mxCell id="97" style="edgeStyle=none;html=1;" edge="1" parent="1" source="43">
                    <mxGeometry relative="1" as="geometry">
                        <mxPoint x="1390" y="260" as="targetPoint"/>
                    </mxGeometry>
                </mxCell>
                <mxCell id="43" value="Cloud&#10;IAM" style="sketch=0;html=1;verticalAlign=top;labelPosition=center;verticalLabelPosition=bottom;align=center;spacingTop=-6;fontSize=11;fontStyle=1;fontColor=#999999;shape=image;aspect=fixed;imageAspect=0;image=data:image/svg+xml,PHN2ZyB4bWxucz0iaHR0cDovL3d3dy53My5vcmcvMjAwMC9zdmciIHhtbG5zOnY9Imh0dHBzOi8vdmVjdGEuaW8vbmFubyIgd2lkdGg9IjE2LjQyMDAwMDA3NjI5Mzk0NSIgaGVpZ2h0PSIyMC4wNDk5OTkyMzcwNjA1NDciIGZpbGwtcnVsZT0iZXZlbm9kZCIgdmlld0JveD0iMCAwIDE2LjQyMDAwMDA3NjI5Mzk0NSAyMC4wNDk5OTkyMzcwNjA1NDciPiYjeGE7CTxzdHlsZSB0eXBlPSJ0ZXh0L2NzcyI+JiN4YTsJLnN0MHtmaWxsOiM0Mjg1ZjQ7fSYjeGE7CS5zdDF7ZmlsbDojNjY5ZGY2O30mI3hhOwk8L3N0eWxlPiYjeGE7CTxwYXRoIGNsYXNzPSJzdDEiIGQ9Ik04LjIxIDBMMCAzLjQydjUuNjNjMCA1LjA2IDMuNSA5LjggOC4yMSAxMSA0LjcxLTEuMTUgOC4yMS01Ljg5IDguMjEtMTAuOTVWMy40MnptMCAzLjc5YTIuNjMgMi42MyAwIDAgMSAxLjAwNSA1LjA2QTIuNjMgMi42MyAwIDAgMSA2LjM1IDQuNTZhMi42MyAyLjYzIDAgMCAxIDEuODYtLjc3em00LjExIDExLjE1YTguNjQgOC42NCAwIDAgMS00LjExIDIuOTMgOC42NCA4LjY0IDAgMCAxLTQuMTEtMi45M3YtMi4yNWMwLTEuNjcgMi43NC0yLjUyIDQuMTEtMi41MnM0LjExLjg1IDQuMTEgMi41MnoiLz4mI3hhOwk8cGF0aCBjbGFzcz0ic3QwIiBkPSJNOC4yMSAwdjMuNzlhMi42MyAyLjYzIDAgMSAxIDAgNS4yNnYxLjEyYzEuMzcgMCA0LjExLjg1IDQuMTEgMi41MnYyLjI1YTguNjQgOC42NCAwIDAgMS00LjExIDIuOTNWMjBjNC43MS0xLjE1IDguMjEtNS44OSA4LjIxLTEwLjk1VjMuNDJ6Ii8+JiN4YTs8L3N2Zz4=;" vertex="1" parent="1">
                    <mxGeometry x="1320" y="27" width="221" height="273" as="geometry"/>
                </mxCell>
                <mxCell id="76" style="edgeStyle=none;html=1;" edge="1" parent="1" source="65" target="6">
                    <mxGeometry relative="1" as="geometry"/>
                </mxCell>
                <mxCell id="84" style="edgeStyle=none;html=1;" edge="1" parent="1" source="65" target="75">
                    <mxGeometry relative="1" as="geometry"/>
                </mxCell>
                <mxCell id="65" value="" style="aspect=fixed;html=1;points=[];align=center;image;fontSize=12;image=img/lib/azure2/other/Grafana.svg;" vertex="1" parent="1">
                    <mxGeometry x="2050" y="520" width="338.45" height="262.8" as="geometry"/>
                </mxCell>
                <mxCell id="71" style="edgeStyle=none;html=1;exitX=1;exitY=0.5;exitDx=0;exitDy=0;entryX=1;entryY=1;entryDx=0;entryDy=0;" edge="1" parent="1" source="43" target="43">
                    <mxGeometry relative="1" as="geometry"/>
                </mxCell>
                <mxCell id="78" style="edgeStyle=none;html=1;" edge="1" parent="1" source="75" target="18">
                    <mxGeometry relative="1" as="geometry"/>
                </mxCell>
                <mxCell id="79" style="edgeStyle=none;html=1;" edge="1" parent="1" source="75" target="4">
                    <mxGeometry relative="1" as="geometry"/>
                </mxCell>
                <mxCell id="80" style="edgeStyle=none;html=1;" edge="1" parent="1" source="75" target="5">
                    <mxGeometry relative="1" as="geometry"/>
                </mxCell>
                <mxCell id="75" value="Amazon Elasticsearch Service" style="sketch=0;outlineConnect=0;fontColor=#232F3E;gradientColor=none;strokeColor=#ffffff;fillColor=#232F3E;dashed=0;verticalLabelPosition=middle;verticalAlign=bottom;align=center;html=1;whiteSpace=wrap;fontSize=10;fontStyle=1;spacing=3;shape=mxgraph.aws4.productIcon;prIcon=mxgraph.aws4.elasticsearch_service;" vertex="1" parent="1">
                    <mxGeometry x="1090" y="470" width="330" height="50" as="geometry"/>
                </mxCell>
                <mxCell id="81" style="edgeStyle=none;html=1;exitX=0.92;exitY=0.5;exitDx=0;exitDy=0;exitPerimeter=0;" edge="1" parent="1" source="23" target="23">
                    <mxGeometry relative="1" as="geometry"/>
                </mxCell>
                <mxCell id="87" value="" style="rounded=1;whiteSpace=wrap;html=1;strokeWidth=2;fillWeight=4;hachureGap=8;hachureAngle=45;fillColor=#1ba1e2;sketch=1;" vertex="1" parent="1">
                    <mxGeometry x="620" y="-220" width="530" height="150" as="geometry"/>
                </mxCell>
                <mxCell id="88" value="" style="rounded=1;whiteSpace=wrap;html=1;strokeWidth=2;fillWeight=4;hachureGap=8;hachureAngle=45;fillColor=#1ba1e2;sketch=1;" vertex="1" parent="1">
                    <mxGeometry x="1940" y="50" width="530" height="150" as="geometry"/>
                </mxCell>
                <mxCell id="90" value="" style="edgeStyle=none;html=1;entryX=0.5;entryY=0;entryDx=0;entryDy=0;endArrow=none;" edge="1" parent="1" source="6" target="89">
                    <mxGeometry relative="1" as="geometry">
                        <mxPoint x="1447.3067354968207" y="1380" as="sourcePoint"/>
                        <mxPoint x="1545" y="770" as="targetPoint"/>
                    </mxGeometry>
                </mxCell>
                <mxCell id="89" value="" style="rounded=1;whiteSpace=wrap;html=1;strokeWidth=2;fillWeight=4;hachureGap=8;hachureAngle=45;fillColor=#1ba1e2;sketch=1;" vertex="1" parent="1">
                    <mxGeometry x="1100" y="1200" width="530" height="150" as="geometry"/>
                </mxCell>
                <mxCell id="92" value="" style="verticalLabelPosition=bottom;html=1;verticalAlign=top;align=center;strokeColor=none;fillColor=#00BEF2;shape=mxgraph.azure.cloud;" vertex="1" parent="1">
                    <mxGeometry x="90" y="-1020" width="2230" height="622.5" as="geometry"/>
                </mxCell>
                <mxCell id="101" style="edgeStyle=none;html=1;" edge="1" parent="1" source="93">
                    <mxGeometry relative="1" as="geometry">
                        <mxPoint x="180" y="809.9999999999995" as="targetPoint"/>
                    </mxGeometry>
                </mxCell>
                <mxCell id="93" value="" style="verticalLabelPosition=bottom;html=1;verticalAlign=top;align=center;strokeColor=none;fillColor=#00BEF2;shape=mxgraph.azure.azure_active_directory;" vertex="1" parent="1">
                    <mxGeometry x="47.660000000000025" y="-30" width="307.5" height="260" as="geometry"/>
                </mxCell>
                <mxCell id="100" style="edgeStyle=none;html=1;" edge="1" parent="1" source="94" target="93">
                    <mxGeometry relative="1" as="geometry"/>
                </mxCell>
                <mxCell id="94" value="" style="aspect=fixed;html=1;points=[];align=center;image;fontSize=12;image=img/lib/azure2/identity/Azure_AD_Domain_Services.svg;" vertex="1" parent="1">
                    <mxGeometry x="630" y="-40" width="285.31" height="260.86" as="geometry"/>
                </mxCell>
                <mxCell id="99" value="" style="edgeStyle=none;html=1;endArrow=none;" edge="1" parent="1">
                    <mxGeometry relative="1" as="geometry">
                        <mxPoint x="185.8356136431339" y="310" as="sourcePoint"/>
                        <mxPoint x="188.06567208533716" y="300" as="targetPoint"/>
                    </mxGeometry>
                </mxCell>
            </root>
        </mxGraphModel>
    </diagram>
</mxfile>